<?xml version="1.0" encoding="utf-8"?>
<!-- Generator: Adobe Illustrator 16.0.0, SVG Export Plug-In . SVG Version: 6.00 Build 0)  -->
<!DOCTYPE svg PUBLIC "-//W3C//DTD SVG 1.1//EN" "http://www.w3.org/Graphics/SVG/1.1/DTD/svg11.dtd">
<svg version="1.1" id="Layer_1" xmlns="http://www.w3.org/2000/svg" xmlns:xlink="http://www.w3.org/1999/xlink" x="0px" y="0px"
	 width="81.75px" height="92.25px" viewBox="0 0 81.75 92.25" enable-background="new 0 0 81.75 92.25" xml:space="preserve">
<polygon fill="#1E7B4E" stroke="#FBEF4A" stroke-width="4.0806" stroke-miterlimit="10" points="4.505,66.754 4.505,24.155 
	41.393,2.852 78.287,24.155 78.287,66.754 41.393,88.049 "/>
<polygon fill="#F9ED32" points="21.057,40.659 21.057,31.128 29.298,26.37 37.561,31.128 37.561,40.659 29.298,45.425 "/>
<polygon points="27.864,36.375 27.864,32.012 31.636,29.824 35.429,32.012 35.429,36.375 31.636,38.557 "/>
<polygon fill="#F9ED32" points="62.207,40.659 62.207,31.128 53.965,26.37 45.704,31.128 45.704,40.659 53.965,45.425 "/>
<polygon points="55.2,39.418 55.2,35.144 51.494,33.005 47.795,35.144 47.795,39.418 51.494,41.549 "/>
<polyline fill="none" stroke="#F9ED32" stroke-width="5.1008" stroke-miterlimit="10" points="24.829,58.903 41.938,70.488 
	58.62,59.541 "/>
</svg>
