<svg xmlns="http://www.w3.org/2000/svg" version="1.1" x="0" y="0" width="301.3" height="61.5" viewBox="0 0 301.3 61.5" enable-background="new 0 0 301.333 61.5" xml:space="preserve">
  <path fill="#fff" d="M169.6 15.4l-7.8-0.6v-3.5h13.1v40.9l10.2 0.6v3.6h-25.5v-3.6l10-0.6V15.4zM208.4 28.7l-7.8-0.6v-3.6h13.1v27.7l10.2 0.6v3.6h-25.4v-3.6l10-0.6V28.7zM241.2 52.3h-0.3l-1.1 4h-3.8V11.2h5.3v10.9c0 1.6-0.1 3.7-0.2 6.5h0.2c2.1-3.2 5.2-4.7 9.3-4.7 3.9 0 6.9 1.4 9.1 4.3 2.2 2.9 3.3 6.9 3.3 12.1 0 5.2-1.1 9.3-3.3 12.2 -2.2 2.9-5.3 4.4-9.1 4.4C246.5 56.9 243.4 55.3 241.2 52.3zM241.2 40.3c0 4.4 0.7 7.5 2 9.4 1.3 1.9 3.5 2.8 6.4 2.8 5.3 0 7.9-4.1 7.9-12.2 0-8-2.6-12-7.9-12 -3 0-5.1 0.9-6.4 2.7C241.8 32.8 241.2 35.9 241.2 40.3zM275.8 54.9V50.1c3.7 1.7 7.3 2.5 10.7 2.5 5.3 0 8-1.6 8-4.7 0-1.1-0.5-2.1-1.4-2.9 -0.9-0.8-3.1-1.8-6.5-3.1 -4.5-1.7-7.3-3.2-8.5-4.6 -1.2-1.4-1.8-3.1-1.8-5 0-2.6 1.1-4.7 3.2-6.2 2.2-1.5 5.1-2.2 8.9-2.2 3.8 0 7.4 0.7 10.7 2.1l-1.7 4.3c-3.5-1.4-6.6-2.1-9.2-2.1 -4.6 0-6.8 1.3-6.8 3.9 0 1.2 0.5 2.1 1.5 2.8 1 0.7 3.2 1.7 6.7 2.9 4.1 1.5 6.8 2.9 8.1 4.4 1.3 1.4 2 3.2 2 5.3 0 2.9-1.1 5.2-3.4 6.8 -2.3 1.7-5.5 2.5-9.6 2.5C281.9 56.9 278.2 56.2 275.8 54.9z"/>
  <polygon fill="#2E4F3D" points="203.1 16.2 203.1 9.5 208.9 6.2 214.7 9.5 214.7 16.2 208.9 19.6 "/>
  <polygon fill="#17613E" stroke="#17613E" stroke-width="0.5" stroke-miterlimit="10" points="1.3 51.2 4.2 46.2 9.9 46.2 12.7 51.2 9.9 56.1 4.2 56.1 "/>
  <polygon fill="#17613E" stroke="#17613E" stroke-width="0.5" stroke-miterlimit="10" points="1.3 41.4 4.2 36.5 9.9 36.5 12.7 41.4 9.9 46.4 4.2 46.4 "/>
  <polygon fill="#17613E" stroke="#17613E" stroke-width="0.5" stroke-miterlimit="10" points="1.3 31.7 4.2 26.8 9.9 26.8 12.7 31.7 9.9 36.7 4.2 36.7 "/>
  <polygon fill="#17613E" stroke="#17613E" stroke-width="0.5" stroke-miterlimit="10" points="9.7 26.8 12.5 21.8 18.2 21.8 21.1 26.8 18.2 31.7 12.5 31.7 "/>
  <polygon fill="#17613E" stroke="#17613E" stroke-width="0.5" stroke-miterlimit="10" points="18.2 41.4 21.1 36.5 26.8 36.5 29.6 41.4 26.8 46.4 21.1 46.4 "/>
  <polygon fill="#17613E" stroke="#17613E" stroke-width="0.5" stroke-miterlimit="10" points="18.2 31.7 21.1 26.8 26.8 26.8 29.6 31.7 26.8 36.7 21.1 36.7 "/>
  <polygon fill="#17613E" stroke="#17613E" stroke-width="0.5" stroke-miterlimit="10" points="18.2 51.2 21.1 46.2 26.8 46.2 29.6 51.2 26.8 56.1 21.1 56.1 "/>
  <polygon fill="#F9ED32" points="42.1 46.6 42.1 32.2 54.6 25 67.1 32.2 67.1 46.6 54.6 53.9 "/>
  <path fill="#016738" d="M54.6 27.9l10 5.8v11.5l-10 5.8 -10-5.8V33.6L54.6 27.9M54.6 22l-15.1 8.7v17.4l15.1 8.7 15.1-8.7V30.7L54.6 22 54.6 22z"/>
  <polygon fill="#FFFFFF" points="83.5 45.7 83.5 33.2 94.4 26.9 105.2 33.1 105.2 45.7 94.4 51.9 "/>
  <path fill="#2F4F3D" d="M94.4 31.8l6.6 3.8v7.7l-6.6 3.8 -6.6-3.8v-7.6L94.4 31.8M94.4 22L79.3 30.7v17.4l15.1 8.7 15.1-8.7V30.7L94.4 22 94.4 22z"/>
  <polygon fill="#2E4F3D" points="109.4 40.5 101.4 40.5 101.4 3.8 109.4 8.7 "/>
  <polygon fill="#17613E" stroke="#17613E" stroke-width="0.5" stroke-miterlimit="10" points="117.2 39.7 120.1 34.7 125.8 34.7 128.6 39.7 125.8 44.6 120.1 44.6 "/>
  <polygon fill="#17613E" stroke="#17613E" stroke-width="0.5" stroke-miterlimit="10" points="117.2 30 120.1 25 125.8 25 128.6 30 125.8 34.9 120.1 34.9 "/>
  <polygon fill="#17613E" stroke="#17613E" stroke-width="0.5" stroke-miterlimit="10" points="125.7 25 128.5 20.1 134.2 20.1 137.1 25 134.2 30 128.5 30 "/>
  <polygon fill="#17613E" stroke="#17613E" stroke-width="0.5" stroke-miterlimit="10" points="134.2 29.8 137 24.9 142.8 24.9 145.6 29.8 142.8 34.7 137 34.7 "/>
  <polygon fill="#17613E" points="128.3 39.7 130.3 36.4 134.1 36.4 136 39.7 134.1 43 130.3 43 "/>
  <polygon fill="#17613E" stroke="#17613E" stroke-width="0.5" stroke-miterlimit="10" points="117.2 49.3 120.1 44.3 125.8 44.3 128.6 49.3 125.8 54.2 120.1 54.2 "/>
  <polygon fill="#17613E" stroke="#17613E" stroke-width="0.5" stroke-miterlimit="10" points="125.7 54.2 128.5 49.3 134.2 49.3 137.1 54.2 134.2 59.2 128.5 59.2 "/>
  <polygon fill="#17613E" stroke="#17613E" stroke-width="0.5" stroke-miterlimit="10" points="134.2 49.3 137 44.3 142.8 44.3 145.6 49.3 142.8 54.2 137 54.2 "/>
</svg>
